<svg width="260" height="58" viewBox="0 0 260 58" fill="none" xmlns="http://www.w3.org/2000/svg" role="img" aria-label="Missing Frame">
  <rect x="1" y="1" width="56" height="56" rx="14" stroke="#8F1F23" stroke-width="2" fill="#0A0A0B"/>
  <path d="M12 38V19h6.2L29 31.8 39.8 19H46v19h-6.5V28.9L29 40.4 18.5 28.9V38H12Z" fill="#E8E1D8"/>
  <path d="M72 18h16.8v4.9H78v5.4h9.7v4.8H78V42h-6V18Zm25.4 0h6V42h-6V18Zm19.5 0h6.4l11 14.5V18h5.8V42h-5.2l-12.2-15.9V42h-5.8V18Zm36.8 0h8.7c7.7 0 13.1 4.8 13.1 12s-5.4 12-13.1 12h-8.7V18Zm8.5 18.9c4.2 0 7.1-2.6 7.1-6.9s-2.9-6.9-7.1-6.9h-2.5v13.8h2.5Zm24.1-18.9h17.8v4.9h-11.8v4.6h10.7v4.7h-10.7v4.9h12.1V42h-18.1V18Zm30.7 0h10.2c5.4 0 9 3.2 9 8.1 0 3.4-1.7 5.9-4.5 7.1l5.6 8.8h-6.8l-4.8-7.8H223V42h-6V18Zm9.7 11.5c2.2 0 3.5-1.2 3.5-3.1 0-2-1.3-3.1-3.5-3.1H223v6.2h3.7Z" fill="#E8E1D8"/>
  <path d="M71 48h84" stroke="#8F1F23" stroke-width="3" stroke-linecap="round"/>
</svg>
